<svg viewBox="0 0 640 400" data-background-color="#471aa0" preserveAspectRatio="xMidYMid meet"
    height="400" width="640" xmlns="http://www.w3.org/2000/svg"
    xmlns:xlink="http://www.w3.org/1999/xlink">
    <rect width="640" height="400" x="0" y="0" opacity="1" fill="#471aa0"
        data-fill-palette-color="background" id="background"></rect>
    <g id="tight-bounds" transform="matrix(1,0,0,1,122.24000000000001,122.37082219034352)">
        <svg viewBox="0 0 395.52 155.25835561931297" height="155.25835561931297" width="395.52">
            <g>
                <svg viewBox="0 0 742.9114660489502 291.6242227687425" height="155.25835561931297"
                    width="395.52">
                    <g transform="matrix(1,0,0,1,347.3914660489502,117.96411455771518)">
                        <svg viewBox="0 0 395.52 55.69599365331217" height="55.69599365331217"
                            width="395.52">
                            <g id="textblocktransform">
                                <svg viewBox="0 0 395.52 55.69599365331217"
                                    height="55.69599365331217" width="395.52" id="textblock">
                                    <g>
                                        <svg viewBox="0 0 395.52 55.69599365331217"
                                            height="55.69599365331217" width="395.52">
                                            <g transform="matrix(1,0,0,1,0,0)">
                                                <svg width="395.52"
                                                    viewBox="3.5 -35.5 252.0800018310547 35.5"
                                                    height="55.69599365331217"
                                                    data-palette-color="#ffffff">
                                                    <path
                                                        d="M14.3-4.4L22.85-4.4 22.85 0 15.55 0Q13.5 0 12.33-0.08 11.15-0.15 9.4-0.68 7.65-1.2 6.45-2.25L6.45-2.25Q4.6-3.95 4.05-6.33 3.5-8.7 3.5-11.9L3.5-11.9 3.5-35 8.2-35 8.2-12Q8.2-9.1 8.85-7.45L8.85-7.45Q10.15-4.4 14.3-4.4L14.3-4.4ZM47.25-4.4L47.25 0 27.35 0 27.35-26.65Q27.35-30.35 29.7-32.6L29.7-32.6Q31.3-34.1 33.3-34.55 35.3-35 38.2-35L38.2-35 47.25-35 47.25-30.6 37.55-30.6Q32.05-30.6 32.05-26L32.05-26 32.05-20.3 43.6-20.3 43.6-15.9 32.05-15.9 32.05-4.4 47.25-4.4ZM59.4-30.6L50.75-30.6 50.75-35 72.75-35 72.75-30.6 64.09-30.6 64.09 0 59.4 0 59.4-30.6ZM76.24-24L75.74-35 80.14-35 79.64-24 76.24-24ZM93.89-35L103.04-35 103.04-30.6 94.19-30.6Q89.14-30.6 89.14-26.5L89.14-26.5Q89.14-24.3 91.37-22.78 93.59-21.25 97.39-19.85L97.39-19.85Q99.09-19.2 100.29-18.53 101.49-17.85 102.69-16.75 103.89-15.65 104.49-13.93 105.09-12.2 105.09-9.95L105.09-9.95Q105.09-7.45 104.04-5.48 102.99-3.5 101.34-2.38 99.69-1.25 97.97-0.68 96.24-0.1 94.59-0.05L94.59-0.05Q93.89 0 92.59 0L92.59 0 84.79 0 84.79-4.4 92.44-4.4Q95.84-4.4 97.99-5.83 100.14-7.25 100.14-10L100.14-10Q100.14-11.35 99.54-12.38 98.94-13.4 97.82-14.15 96.69-14.9 95.52-15.45 94.34-16 92.69-16.6L92.69-16.6Q92.24-16.75 91.99-16.85L91.99-16.85Q84.14-19.85 84.14-26.65L84.14-26.65Q84.14-30.85 86.84-32.93 89.54-35 93.89-35L93.89-35ZM126.69-23.2L126.69 0 121.99 0 121.99-23Q121.99-28.9 125.16-32.2 128.34-35.5 133.59-35.5L133.59-35.5Q139.19-35.5 142.26-32.3 145.34-29.1 145.34-24.15L145.34-24.15Q145.34-21.05 144.21-18.75 143.09-16.45 141.19-15.2 139.29-13.95 137.14-13.35 134.99-12.75 132.64-12.75L132.64-12.75 128.89-12.75 128.89-17.15 133.19-17.15Q136.54-17.15 138.46-19.18 140.39-21.2 140.39-24.25L140.39-24.25Q140.39-27.25 138.61-29.18 136.84-31.1 133.54-31.1L133.54-31.1Q130.34-31.1 128.51-28.93 126.69-26.75 126.69-23.2L126.69-23.2ZM154.53-12.8L154.53 0 150.08 0 150.08-22Q150.08-27.4 153.56-31.2 157.03-35 162.53-35L162.53-35 173.98-35 173.98 0 169.28 0 169.28-30.6 162.53-30.6Q158.88-30.6 156.71-28.45 154.53-26.3 154.53-21.6L154.53-21.6 154.53-17.35Q157.33-20.3 162.53-20.3L162.53-20.3 167.08-20.3 167.08-15.9 162.53-15.9Q159.63-15.9 157.81-15.2 155.98-14.5 154.53-12.8L154.53-12.8ZM185.43 0L180.73 0 180.73-22.75Q180.73-28.8 183.71-32.15 186.68-35.5 192.18-35.5L192.18-35.5Q197.73-35.5 200.71-32.8 203.68-30.1 203.68-25.2L203.68-25.2Q203.68-22.05 202.18-20.05 200.68-18.05 197.08-16.9L197.08-16.9 197.08-16.7Q200.83-15.25 202.11-12.58 203.38-9.9 203.38-3.75L203.38-3.75 203.38 0 198.68 0 198.68-6.4Q198.68-10.2 196.53-12.33 194.38-14.45 190.33-14.45L190.33-14.45 187.63-14.45 187.63-18.85 190.48-18.85Q195.28-18.85 197.13-20.8 198.98-22.75 198.98-25.45L198.98-25.45Q198.98-28 197.16-29.55 195.33-31.1 192.33-31.1L192.33-31.1Q188.88-31.1 187.16-29.15 185.43-27.2 185.43-22.75L185.43-22.75 185.43 0ZM216.08-30.6L207.43-30.6 207.43-35 229.43-35 229.43-30.6 220.78-30.6 220.78 0 216.08 0 216.08-30.6ZM250.88-35L255.58-35 255.58-32.5Q255.58-26.4 253.3-21.33 251.03-16.25 246.68-13.6L246.68-13.6 246.68 0 241.98 0 241.98-13.5Q237.63-16.1 235.28-21.08 232.93-26.05 232.93-32.05L232.93-32.05 232.93-35 237.73-35 237.73-32.5Q237.73-27.35 239.2-23.68 240.68-20 244.33-17.65L244.33-17.65Q250.88-22 250.88-32.5L250.88-32.5 250.88-35Z"
                                                        opacity="1" transform="matrix(1,0,0,1,0,0)"
                                                        fill="#ffffff" class="wordmark-text-0"
                                                        data-fill-palette-color="primary"
                                                        id="text-0"></path>
                                                </svg>
                                            </g>
                                        </svg>
                                    </g>
                                </svg>
                            </g>
                        </svg>
                    </g>
                    <g>
                        <svg viewBox="0 0 334.24297865125084 291.6242227687425"
                            height="291.6242227687425" width="334.24297865125084">
                            <g>
                                <svg xmlns="http://www.w3.org/2000/svg"
                                    xmlns:xlink="http://www.w3.org/1999/xlink" version="1.1" x="0"
                                    y="0"
                                    viewBox="16.095949172973633 19.858577728271484 57.813072204589844 50.44142532348633"
                                    enable-background="new 0 0 90 90" xml:space="preserve"
                                    height="291.6242227687425" width="334.24297865125084"
                                    class="icon-icon-0" data-fill-palette-color="accent" id="icon-0"><path fill="#ffffff" d="M44 43c2.4 0 4.3-1.9 4.3-4.3 0-2.4-1.9-4.3-4.3-4.3-2.4 0-4.3 1.9-4.3 4.3C39.7 41.1 41.6 43 44 43zM44 35.4c1.8 0 3.3 1.5 3.3 3.3S45.8 42 44 42s-3.3-1.5-3.3-3.3S42.2 35.4 44 35.4zM73.8 50.5c-0.1-0.2-0.4-0.3-0.7-0.2-1.8 1.1-3.3-0.1-5.6-2-1.6-1.4-3.4-3-5.7-3.4-2.5-0.5-4.6 0.7-5.9 2.2C55.5 47 55 47 54.6 47c0 0 0 0 0 0-3.5 0-7.1 1.9-9.7 5.2-0.2 0.2-0.1 0.5 0.1 0.7 0.2 0.2 0.5 0.1 0.7-0.1 2.4-3 5.7-4.8 8.9-4.8 0.2 0 0.5 0 0.7 0 0 0-0.1 0.1-0.1 0.1-1.2 2.1-1.1 4.5 0.3 6.1 0.7 0.8 1.6 1.2 2.4 1.2 0.8 0 1.5-0.3 2-0.7 1.2-1 1.8-3 0.1-5.2-0.8-1-1.8-1.7-3-2.1 1.1-1.1 2.8-1.9 4.6-1.5 2 0.4 3.7 1.8 5.3 3.2 2.2 1.9 4.2 3.6 6.8 2.2C73.9 51.1 74 50.8 73.8 50.5zM59.3 50.1c1.3 1.7 0.9 3.1 0 3.8-0.8 0.6-2.1 0.8-3.1-0.3-1.3-1.5-1-3.5-0.2-4.9 0.1-0.2 0.2-0.3 0.3-0.5C57.5 48.5 58.5 49.2 59.3 50.1zM33.3 26.3c0.9 0.5 2 0.6 3.1 0.1 0.5-0.2 1.1-0.6 1.5-1 0.3 1 0.4 2.3 0 3.6-0.5-0.4-1.2-0.8-1.8-0.9-1.2-0.2-2.3 0.1-3 0.9-0.5 0.6-0.6 1.3-0.4 2 0.3 0.8 1 1.4 1.9 1.6 0.7 0.1 2 0.1 3.3-1.5 0.1-0.1 0.2-0.2 0.2-0.3 0.1 0.1 0.1 0.2 0.2 0.4 0.2 0.7 0.3 1.8-0.9 3.1-2.9 3.2-3.2 6.1-3.2 6.7 0 0.3 0.2 0.5 0.5 0.5 0 0 0 0 0 0 0.3 0 0.5-0.2 0.5-0.5 0-0.3 0.2-3 3-6 1.1-1.2 1.5-2.7 1.1-4-0.1-0.4-0.3-0.7-0.5-1 0.9-1.8 0.7-3.7 0.1-5.1 0 0 0-0.1 0-0.1 0.8-0.9 1.4-2.1 1.8-3.5 0.1-0.3-0.1-0.5-0.3-0.6-0.3-0.1-0.5 0.1-0.6 0.3-0.3 1.1-0.8 2-1.3 2.8-0.6-0.9-1.4-1.4-2.2-1.5-2.3-0.2-3.4 0.7-3.7 1.7C32 24.8 32.4 25.8 33.3 26.3zM37.1 30.4c-0.8 0.9-1.6 1.3-2.4 1.2-0.5-0.1-1-0.5-1.1-0.9-0.1-0.2-0.1-0.6 0.2-1 0.5-0.5 1.1-0.7 1.5-0.7 0.2 0 0.4 0 0.5 0.1 0.6 0.1 1.1 0.4 1.6 0.9C37.4 30.1 37.2 30.3 37.1 30.4zM33.3 24.2c0.2-0.5 0.8-1 2.1-1 0.2 0 0.4 0 0.6 0 0.5 0.1 1.1 0.5 1.6 1.3-0.5 0.4-1 0.8-1.5 1-0.6 0.2-1.4 0.4-2.2 0C33.4 25.2 33.1 24.7 33.3 24.2zM64.1 31.5c1.4 0 2.5-1.1 2.5-2.5s-1.1-2.5-2.5-2.5-2.5 1.1-2.5 2.5S62.7 31.5 64.1 31.5zM64.1 27.5c0.8 0 1.5 0.7 1.5 1.5s-0.7 1.5-1.5 1.5c-0.8 0-1.5-0.7-1.5-1.5S63.3 27.5 64.1 27.5zM40.2 46.3c0 1 0.8 1.9 1.9 1.9s1.9-0.8 1.9-1.9-0.8-1.9-1.9-1.9S40.2 45.2 40.2 46.3zM42.9 46.3c0 0.5-0.4 0.9-0.9 0.9s-0.9-0.4-0.9-0.9c0-0.5 0.4-0.9 0.9-0.9S42.9 45.8 42.9 46.3zM46.6 25.6l2.9 1.6 0.3 3.3c0 0.2 0.1 0.4 0.3 0.4 0.1 0 0.1 0 0.2 0 0.1 0 0.2 0 0.3-0.1l2.4-2.3 3.2 0.7c0.2 0 0.4 0 0.5-0.2 0.1-0.1 0.1-0.4 0.1-0.5l-1.4-3 1.6-2.8c0.1-0.2 0.1-0.4 0-0.5C57 22 56.8 21.9 56.6 22l-3.3 0.4-2.2-2.4c-0.1-0.1-0.3-0.2-0.5-0.1-0.2 0.1-0.3 0.2-0.4 0.4l-0.6 3.2-3 1.3c-0.2 0.1-0.3 0.2-0.3 0.4C46.4 25.4 46.5 25.5 46.6 25.6zM50.3 24.2c0.2-0.1 0.3-0.2 0.3-0.4l0.5-2.5 1.7 1.9c0.1 0.1 0.3 0.2 0.4 0.2l2.5-0.3-1.3 2.2c-0.1 0.1-0.1 0.3 0 0.5l1.1 2.3L53 27.5c-0.2 0-0.3 0-0.4 0.1l-1.8 1.7-0.3-2.5c0-0.2-0.1-0.3-0.3-0.4L48 25.2 50.3 24.2zM54.2 34.9c-0.2-0.1-0.4 0-0.5 0.1-0.1 0.1-0.2 0.3-0.1 0.5l0.7 2.1-1.3 1.8c-0.1 0.2-0.1 0.4 0 0.5s0.3 0.3 0.4 0.3l2.2 0 1.3 1.8c0.1 0.1 0.2 0.2 0.4 0.2 0 0 0 0 0.1 0 0.2 0 0.3-0.2 0.4-0.3l0.7-2.1 2.1-0.6c0.2-0.1 0.3-0.2 0.3-0.4 0-0.2 0-0.4-0.2-0.5L58.8 37l0-2.2c0-0.2-0.1-0.4-0.3-0.5-0.2-0.1-0.4-0.1-0.5 0l-1.8 1.3L54.2 34.9zM56.7 36.6l1.2-0.9 0 1.5c0 0.2 0.1 0.3 0.2 0.4l1.2 0.9-1.4 0.4c-0.2 0-0.3 0.2-0.3 0.3L57 40.6l-0.8-1.2c-0.1-0.1-0.2-0.2-0.4-0.2 0 0 0 0 0 0l-1.5 0 0.9-1.2c0.1-0.1 0.1-0.3 0.1-0.5l-0.5-1.4 1.4 0.5C56.4 36.7 56.5 36.7 56.7 36.6zM29.1 39.7c-0.1-0.1-0.3-0.2-0.4-0.1-0.2 0-0.3 0.1-0.4 0.3l-12.1 28c-0.2 0.5-0.1 1 0.2 1.5 0.3 0.5 0.9 0.9 1.5 0.9 0.2 0 0.4 0 0.5-0.1l28-12.1c0.2-0.1 0.3-0.2 0.3-0.4 0-0.2 0-0.3-0.1-0.4L29.1 39.7zM27.6 43.9l8.2 4 6.9 6.9-16.4-8L27.6 43.9zM28.9 41l4.8 4.8L28 43 28.9 41zM36.6 61.2L23 54.6l1.3-2.9 16.2 7.9L36.6 61.2zM31.5 63.4l-10.2-4.9 1.3-2.9 12.8 6.2L31.5 63.4zM26.4 65.6l-6.7-3.3 1.3-2.9 9.3 4.5L26.4 65.6zM21.3 67.8l-3.3-1.6 1.3-2.9 5.9 2.9L21.3 67.8zM18 69.2c-0.2 0.1-0.6-0.1-0.8-0.4-0.1-0.1-0.2-0.3-0.1-0.5l0.5-1.2 2.5 1.2L18 69.2zM41.7 59l-17-8.3 1.3-2.9L45 57l0.4 0.4L41.7 59z" data-fill-palette-color="accent"></path></svg>
                            </g>
                        </svg>
                    </g>
                </svg>
            </g>
            <defs></defs>
        </svg>
        <rect width="395.52" height="155.25835561931297" fill="none" stroke="none"
            visibility="hidden"></rect>
    </g>
</svg>