<svg viewBox="0 0 300 300"
    height="300" width="300">
    <g>
        <svg xmlns="http://www.w3.org/2000/svg"
            xmlns:xlink="http://www.w3.org/1999/xlink" version="1.1" x="0"
            y="0"
            viewBox="16.095949172973633 19.858577728271484 57.813072204589844 50.44142532348633"
            enable-background="new 0 0 90 90" xml:space="preserve"
            height="300" width="300"
            class="icon-icon-0" data-fill-palette-color="accent" id="icon-0"><path fill="#471aa0" d="M44 43c2.4 0 4.3-1.9 4.3-4.3 0-2.4-1.9-4.3-4.3-4.3-2.4 0-4.3 1.9-4.3 4.3C39.7 41.1 41.6 43 44 43zM44 35.4c1.8 0 3.3 1.5 3.3 3.3S45.8 42 44 42s-3.3-1.5-3.3-3.3S42.2 35.4 44 35.4zM73.8 50.5c-0.1-0.2-0.4-0.3-0.7-0.2-1.8 1.1-3.3-0.1-5.6-2-1.6-1.4-3.4-3-5.7-3.4-2.5-0.5-4.6 0.7-5.9 2.2C55.5 47 55 47 54.6 47c0 0 0 0 0 0-3.5 0-7.1 1.9-9.7 5.2-0.2 0.2-0.1 0.5 0.1 0.7 0.2 0.2 0.5 0.1 0.7-0.1 2.4-3 5.7-4.8 8.9-4.8 0.2 0 0.5 0 0.7 0 0 0-0.1 0.1-0.1 0.1-1.2 2.1-1.1 4.5 0.3 6.1 0.7 0.8 1.6 1.2 2.4 1.2 0.8 0 1.5-0.3 2-0.7 1.2-1 1.8-3 0.1-5.2-0.8-1-1.8-1.7-3-2.1 1.1-1.1 2.8-1.9 4.6-1.5 2 0.4 3.7 1.8 5.3 3.2 2.2 1.9 4.2 3.6 6.8 2.2C73.9 51.1 74 50.8 73.8 50.5zM59.3 50.1c1.3 1.7 0.9 3.1 0 3.8-0.8 0.6-2.1 0.8-3.1-0.3-1.3-1.5-1-3.5-0.2-4.9 0.1-0.2 0.2-0.3 0.3-0.5C57.5 48.5 58.5 49.2 59.3 50.1zM33.3 26.3c0.9 0.5 2 0.6 3.1 0.1 0.5-0.2 1.1-0.6 1.5-1 0.3 1 0.4 2.3 0 3.6-0.5-0.4-1.2-0.8-1.8-0.9-1.2-0.2-2.3 0.1-3 0.9-0.5 0.6-0.6 1.3-0.4 2 0.3 0.8 1 1.4 1.9 1.6 0.7 0.1 2 0.1 3.3-1.5 0.1-0.1 0.2-0.2 0.2-0.3 0.1 0.1 0.1 0.2 0.2 0.4 0.2 0.7 0.3 1.8-0.9 3.1-2.9 3.2-3.2 6.1-3.2 6.7 0 0.3 0.2 0.5 0.5 0.5 0 0 0 0 0 0 0.3 0 0.5-0.2 0.5-0.5 0-0.3 0.2-3 3-6 1.1-1.2 1.5-2.7 1.1-4-0.1-0.4-0.3-0.7-0.5-1 0.9-1.8 0.7-3.7 0.1-5.1 0 0 0-0.1 0-0.1 0.8-0.9 1.4-2.1 1.8-3.5 0.1-0.3-0.1-0.5-0.3-0.6-0.3-0.1-0.5 0.1-0.6 0.3-0.3 1.1-0.8 2-1.3 2.8-0.6-0.9-1.4-1.4-2.2-1.5-2.3-0.2-3.4 0.7-3.7 1.7C32 24.8 32.4 25.8 33.3 26.3zM37.1 30.4c-0.8 0.9-1.6 1.3-2.4 1.2-0.5-0.1-1-0.5-1.1-0.9-0.1-0.2-0.1-0.6 0.2-1 0.5-0.5 1.1-0.7 1.5-0.7 0.2 0 0.4 0 0.5 0.1 0.6 0.1 1.1 0.4 1.6 0.9C37.4 30.1 37.2 30.3 37.1 30.4zM33.3 24.2c0.2-0.5 0.8-1 2.1-1 0.2 0 0.4 0 0.6 0 0.5 0.1 1.1 0.5 1.6 1.3-0.5 0.4-1 0.8-1.5 1-0.6 0.2-1.4 0.4-2.2 0C33.4 25.2 33.1 24.7 33.3 24.2zM64.1 31.5c1.4 0 2.5-1.1 2.5-2.5s-1.1-2.5-2.5-2.5-2.5 1.1-2.5 2.5S62.7 31.5 64.1 31.5zM64.1 27.5c0.8 0 1.5 0.7 1.5 1.5s-0.7 1.5-1.5 1.5c-0.8 0-1.5-0.7-1.5-1.5S63.3 27.5 64.1 27.5zM40.2 46.3c0 1 0.8 1.9 1.9 1.9s1.9-0.8 1.9-1.9-0.8-1.9-1.9-1.9S40.2 45.2 40.2 46.3zM42.9 46.3c0 0.5-0.4 0.9-0.9 0.9s-0.9-0.4-0.9-0.9c0-0.5 0.4-0.9 0.9-0.9S42.9 45.8 42.9 46.3zM46.6 25.6l2.9 1.6 0.3 3.3c0 0.2 0.1 0.4 0.3 0.4 0.1 0 0.1 0 0.2 0 0.1 0 0.2 0 0.3-0.1l2.4-2.3 3.2 0.7c0.2 0 0.4 0 0.5-0.2 0.1-0.1 0.1-0.4 0.1-0.5l-1.4-3 1.6-2.8c0.1-0.2 0.1-0.4 0-0.5C57 22 56.8 21.9 56.6 22l-3.3 0.4-2.2-2.4c-0.1-0.1-0.3-0.2-0.5-0.1-0.2 0.1-0.3 0.2-0.4 0.4l-0.6 3.2-3 1.3c-0.2 0.1-0.3 0.2-0.3 0.4C46.4 25.4 46.5 25.5 46.6 25.6zM50.3 24.2c0.2-0.1 0.3-0.2 0.3-0.4l0.5-2.5 1.7 1.9c0.1 0.1 0.3 0.2 0.4 0.2l2.5-0.3-1.3 2.2c-0.1 0.1-0.1 0.3 0 0.5l1.1 2.3L53 27.5c-0.2 0-0.3 0-0.4 0.1l-1.8 1.7-0.3-2.5c0-0.2-0.1-0.3-0.3-0.4L48 25.2 50.3 24.2zM54.2 34.9c-0.2-0.1-0.4 0-0.5 0.1-0.1 0.1-0.2 0.3-0.1 0.5l0.7 2.1-1.3 1.8c-0.1 0.2-0.1 0.4 0 0.5s0.3 0.3 0.4 0.3l2.2 0 1.3 1.8c0.1 0.1 0.2 0.2 0.4 0.2 0 0 0 0 0.1 0 0.2 0 0.3-0.2 0.4-0.3l0.7-2.1 2.1-0.6c0.2-0.1 0.3-0.2 0.3-0.4 0-0.2 0-0.4-0.2-0.5L58.8 37l0-2.2c0-0.2-0.1-0.4-0.3-0.5-0.2-0.1-0.4-0.1-0.5 0l-1.8 1.3L54.2 34.9zM56.7 36.6l1.2-0.9 0 1.5c0 0.2 0.1 0.3 0.2 0.4l1.2 0.9-1.4 0.4c-0.2 0-0.3 0.2-0.3 0.3L57 40.6l-0.8-1.2c-0.1-0.1-0.2-0.2-0.4-0.2 0 0 0 0 0 0l-1.5 0 0.9-1.2c0.1-0.1 0.1-0.3 0.1-0.5l-0.5-1.4 1.4 0.5C56.4 36.7 56.5 36.7 56.7 36.6zM29.1 39.7c-0.1-0.1-0.3-0.2-0.4-0.1-0.2 0-0.3 0.1-0.4 0.3l-12.1 28c-0.2 0.5-0.1 1 0.2 1.5 0.3 0.5 0.9 0.9 1.5 0.9 0.2 0 0.4 0 0.5-0.1l28-12.1c0.2-0.1 0.3-0.2 0.3-0.4 0-0.2 0-0.3-0.1-0.4L29.1 39.7zM27.6 43.9l8.2 4 6.9 6.9-16.4-8L27.6 43.9zM28.9 41l4.8 4.8L28 43 28.9 41zM36.6 61.2L23 54.6l1.3-2.9 16.2 7.9L36.6 61.2zM31.5 63.4l-10.2-4.9 1.3-2.9 12.8 6.2L31.5 63.4zM26.4 65.6l-6.7-3.3 1.3-2.9 9.3 4.5L26.4 65.6zM21.3 67.8l-3.3-1.6 1.3-2.9 5.9 2.9L21.3 67.8zM18 69.2c-0.2 0.1-0.6-0.1-0.8-0.4-0.1-0.1-0.2-0.3-0.1-0.5l0.5-1.2 2.5 1.2L18 69.2zM41.7 59l-17-8.3 1.3-2.9L45 57l0.4 0.4L41.7 59z" data-fill-palette-color="accent"></path></svg>
    </g>
</svg>